<?xml version="1.0" encoding="utf-8"?>
<!-- Generator: Adobe Illustrator 16.0.0, SVG Export Plug-In . SVG Version: 6.00 Build 0)  -->
<!DOCTYPE svg PUBLIC "-//W3C//DTD SVG 1.1//EN" "http://www.w3.org/Graphics/SVG/1.1/DTD/svg11.dtd">
<svg version="1.1" id="Layer_1" xmlns="http://www.w3.org/2000/svg" xmlns:xlink="http://www.w3.org/1999/xlink" x="0px" y="0px"
	 width="590px" height="700px" viewBox="0 0 590 700" enable-background="new 0 0 590 700" xml:space="preserve">
<g>
	<g>
		<path fill="#FFFFFF" d="M388.477,166.902V398.16h-11.086V285.164H223.672V398.16h-11.398V166.902h11.398v107.832h153.719V166.902
			H388.477z"/>
	</g>
	<g>
		<path fill="#FFFFFF" d="M300.326,546.801c-23.779,0-47.43-3.141-70.209-9.332c-2.385-0.629-3.789-3.086-3.135-5.477
			c0.625-2.383,3.109-3.771,5.484-3.141c22,5.969,44.852,8.986,67.857,8.986c0.039,0,0.057,0,0.078,0
			c142.5,0,258.438-115.938,258.438-258.441c0-142.516-115.938-258.461-258.438-258.461c-142.516,0-258.482,115.945-258.482,258.461
			c0,54.57,16.812,106.727,48.578,150.84c1.453,2.004,0.992,4.797-1.023,6.25c-1.992,1.434-4.781,0.986-6.211-1.023
			c-32.891-45.651-50.258-99.617-50.258-156.066C33.008,131.953,152.945,12,300.406,12c147.445,0,267.383,119.953,267.383,267.398
			c0,147.441-119.938,267.402-267.383,267.402C300.383,546.801,300.365,546.801,300.326,546.801z"/>
	</g>
	<g>
		<g>
			<path fill="#FFFFFF" d="M198.039,514.66"/>
		</g>
		<g>
			<path fill="#FFFFFF" d="M136.648,601.891c-63.008,0-71.029-54.633-71.125-55.18l-14.193-58.398l29.18-29.137
				c1.742-1.746,4.578-1.746,6.328,0c1.75,1.738,1.75,4.57,0,6.332l-25.61,25.582l13.094,53.957
				c0.354,2.398,7.289,47.902,62.328,47.902c2.479,0,4.471,1.986,4.471,4.465C141.117,599.895,139.125,601.891,136.648,601.891z"/>
		</g>
		<g>
			<path fill="#FFFFFF" d="M91.094,466.539c-6.031,0-10.953-4.93-10.953-10.957c0-6.039,4.922-10.922,10.953-10.922
				s10.938,4.883,10.938,10.922C102.031,461.609,97.125,466.539,91.094,466.539z M91.094,453.594c-1.094,0-2,0.875-2,1.988
				c0,2.184,3.992,2.215,3.992,0C93.086,454.469,92.18,453.594,91.094,453.594z"/>
		</g>
		<g>
			<path fill="#FFFFFF" d="M136.039,601.891c-2.461,0-4.453-1.996-4.453-4.477c0-2.477,1.992-4.465,4.453-4.465
				c55.068,0,62-45.504,62.258-47.441l13.18-54.418l-25.578-25.582c-1.732-1.762-1.732-4.594,0-6.332
				c1.758-1.746,4.586-1.746,6.336,0l29.125,29.137l-14.271,58.85C207.086,547.258,199.086,601.891,136.039,601.891z"/>
		</g>
		<g>
			<path fill="#FFFFFF" d="M181.898,466.539c-5.857,0-10.646-4.797-10.646-10.672c0-5.863,4.789-10.646,10.646-10.646
				c5.875,0,10.656,4.781,10.656,10.646C192.555,461.742,187.773,466.539,181.898,466.539z M181.898,454.18
				c-0.93,0-1.703,0.758-1.703,1.688c0,1.883,3.414,1.896,3.414,0C183.609,454.938,182.844,454.18,181.898,454.18z"/>
		</g>
		<g>
			<path fill="#FFFFFF" d="M145.906,688c-3.521,0-7.211-0.801-11.115-2.574c-7.836-3.568-13.367-9.672-16.471-18.164
				c-10.969-30.133,13.25-69.607,14.289-71.775c1.07-2.229,3.742-3.16,5.971-2.105c2.227,1.057,3.188,3.738,2.102,5.965
				c-0.227,0.492-23.633,38.256-13.945,64.863c2.281,6.219,6.104,10.492,11.781,13.063c15.453,7.025,27.18-9.342,43.273-35.131
				c12.961-20.744,26.357-42.201,45.469-42.201c2.469,0,4.461,2.004,4.461,4.477c0,2.465-1.992,4.484-4.461,4.484
				c-14.133,0-26.203,19.312-37.883,37.99C176.727,667.16,163.703,688,145.906,688z"/>
		</g>
		<g>
			<path fill="#FFFFFF" d="M250.336,636.254c-15.172,0-27.547-12.363-27.547-27.562c0-15.188,12.375-27.535,27.547-27.535
				c15.211,0,27.568,12.348,27.568,27.535C277.906,623.891,265.547,636.254,250.336,636.254z M250.336,590.098
				c-10.258,0-18.617,8.354-18.617,18.596c0,10.27,8.359,18.641,18.617,18.641c10.271,0,18.641-8.371,18.641-18.641
				C268.977,598.449,260.609,590.098,250.336,590.098z"/>
		</g>
		<g>
			<path fill="#FFFFFF" d="M250.336,624.973c-8.979,0-16.281-7.301-16.281-16.279c0-8.98,7.305-16.285,16.281-16.285
				c8.982,0,16.289,7.305,16.289,16.285C266.625,617.672,259.32,624.973,250.336,624.973z M250.336,601.344
				c-4.039,0-7.354,3.301-7.354,7.35c0,4.033,3.313,7.314,7.354,7.314c4.055,0,7.344-3.281,7.344-7.314
				C257.68,604.645,254.391,601.344,250.336,601.344z"/>
		</g>
	</g>
</g>
</svg>
